<svg width="48" height="66" viewBox="0 0 48 66" fill="none" xmlns="http://www.w3.org/2000/svg">
<path d="M39 0H3C2.20435 0 1.44129 0.347677 0.87868 0.966547C0.316071 1.58542 0 2.42479 0 3.3V56.1C0 56.9752 0.316071 57.8146 0.87868 58.4335C1.44129 59.0523 2.20435 59.4 3 59.4H6V62.7C6 63.5752 6.31607 64.4146 6.87868 65.0335C7.44129 65.6523 8.20435 66 9 66C9.79565 66 10.5587 65.6523 11.1213 65.0335C11.6839 64.4146 12 63.5752 12 62.7V59.4H39C41.3869 59.4 43.6761 58.357 45.364 56.5004C47.0518 54.6437 48 52.1256 48 49.5V9.9C48 7.27436 47.0518 4.75625 45.364 2.89964C43.6761 1.04303 41.3869 0 39 0ZM30 52.8H6V6.6H30V52.8ZM42 49.5C42 50.3752 41.6839 51.2146 41.1213 51.8335C40.5587 52.4523 39.7957 52.8 39 52.8H36V6.6H39C39.7957 6.6 40.5587 6.94768 41.1213 7.56655C41.6839 8.18542 42 9.02479 42 9.9V49.5Z" fill="black"/>
</svg>
