<svg width="44" height="61" viewBox="0 0 44 61" fill="none" xmlns="http://www.w3.org/2000/svg">
<path fill-rule="evenodd" clip-rule="evenodd" d="M41.25 33.1522C41.184 33.1522 41.1221 33.1376 41.0561 33.1336C40.6923 35.7475 39.7926 38.2654 38.4095 40.5405C37.0263 42.8157 35.1875 44.8025 33 46.3852V55.6957C33 57.1025 32.4205 58.4516 31.3891 59.4464C30.3576 60.4412 28.9587 61 27.5 61H13.75C12.2913 61 10.8924 60.4412 9.86091 59.4464C8.82946 58.4516 8.25 57.1025 8.25 55.6957V46.3852C3.24913 42.7557 0 37.0005 0 30.5C0 23.9982 3.24913 18.243 8.25 14.6148V5.30435C8.25 3.89755 8.82946 2.54837 9.86091 1.55361C10.8924 0.558849 12.2913 0 13.75 0H27.5C28.9587 0 30.3576 0.558849 31.3891 1.55361C32.4205 2.54837 33 3.89755 33 5.30435V14.6148C35.1877 16.1973 37.0267 18.1841 38.4099 20.4593C39.793 22.7344 40.6926 25.2524 41.0561 27.8664C41.1221 27.8624 41.184 27.8478 41.25 27.8478C41.9793 27.8478 42.6788 28.1273 43.1945 28.6246C43.7103 29.122 44 29.7966 44 30.5C44 31.2034 43.7103 31.878 43.1945 32.3754C42.6788 32.8727 41.9793 33.1522 41.25 33.1522ZM11 55.6957C11 56.3991 11.2897 57.0736 11.8055 57.571C12.3212 58.0684 13.0207 58.3478 13.75 58.3478H27.5C28.2293 58.3478 28.9288 58.0684 29.4445 57.571C29.9603 57.0736 30.25 56.3991 30.25 55.6957V48.0866C27.3749 49.5519 24.1024 50.3913 20.625 50.3913C17.1476 50.3913 13.8751 49.5519 11 48.0866V55.6957ZM30.25 5.30435C30.25 4.60095 29.9603 3.92636 29.4445 3.42898C28.9288 2.9316 28.2293 2.65217 27.5 2.65217H13.75C13.0207 2.65217 12.3212 2.9316 11.8055 3.42898C11.2897 3.92636 11 4.60095 11 5.30435V12.9134C13.8751 11.4468 17.1476 10.6087 20.625 10.6087C24.1024 10.6087 27.3749 11.4468 30.25 12.9134V5.30435ZM20.625 13.2609C10.7525 13.2609 2.75 20.9787 2.75 30.5C2.75 40.0213 10.7525 47.7391 20.625 47.7391C30.4975 47.7391 38.5 40.0213 38.5 30.5C38.5 20.9787 30.4975 13.2609 20.625 13.2609ZM22 34.2343V42.4348C22 42.7865 21.8551 43.1238 21.5973 43.3725C21.3394 43.6212 20.9897 43.7609 20.625 43.7609C20.2603 43.7609 19.9106 43.6212 19.6527 43.3725C19.3949 43.1238 19.25 42.7865 19.25 42.4348V34.2343C18.4476 33.9623 17.7523 33.4572 17.2599 32.7885C16.7674 32.1197 16.5019 31.3202 16.5 30.5C16.5 29.8754 16.6623 29.2933 16.929 28.7655L12.7682 24.7527C12.5294 24.5074 12.3989 24.182 12.4044 23.8455C12.4099 23.509 12.551 23.1878 12.7977 22.9498C13.0445 22.7119 13.3775 22.5758 13.7265 22.5705C14.0754 22.5652 14.4127 22.6911 14.6671 22.9214L18.8279 26.9342C19.3865 26.6663 20.0012 26.5252 20.625 26.5217C21.719 26.5217 22.7682 26.9409 23.5418 27.6869C24.3154 28.433 24.75 29.4449 24.75 30.5C24.7485 31.3203 24.4832 32.12 23.9906 32.7888C23.4981 33.4576 22.8026 33.9627 22 34.2343ZM20.625 29.1739C20.2603 29.1739 19.9106 29.3136 19.6527 29.5623C19.3949 29.811 19.25 30.1483 19.25 30.5C19.25 30.8517 19.3949 31.189 19.6527 31.4377C19.9106 31.6864 20.2603 31.8261 20.625 31.8261C20.9897 31.8261 21.3394 31.6864 21.5973 31.4377C21.8551 31.189 22 30.8517 22 30.5C22 30.1483 21.8551 29.811 21.5973 29.5623C21.3394 29.3136 20.9897 29.1739 20.625 29.1739Z" fill="black"/>
</svg>
