<svg width="55" height="56" viewBox="0 0 55 56" fill="none" xmlns="http://www.w3.org/2000/svg">
<path d="M51.8461 43.6985C54.2092 38.8182 55.2792 33.3213 54.9369 27.8196C54.5946 22.318 52.8535 17.0274 49.9073 12.5369C49.8879 12.5068 49.8666 12.4781 49.8438 12.451L49.8266 12.4286C48.9677 11.1157 48.0075 9.88462 46.9562 8.74879C41.799 3.14702 34.8045 0 27.5112 0C20.2179 0 13.2233 3.14702 8.06609 8.74879C7.31736 9.55823 6.61697 10.4188 5.96922 11.3252C5.87799 11.4043 5.80255 11.5028 5.7475 11.6146C5.7475 11.6277 5.7475 11.6407 5.73719 11.6538C2.52216 16.1648 0.569624 21.5852 0.112494 27.2684C-0.344635 32.9516 0.71294 38.6577 3.15906 43.706C2.16785 44.664 1.37407 45.8385 0.829678 47.1528C0.285286 48.4671 0.00255723 49.8914 0 51.3326L0 55.0665C0 55.3141 0.090541 55.5515 0.251705 55.7266C0.412869 55.9017 0.631455 56 0.859375 56H54.1406C54.3685 56 54.5871 55.9017 54.7483 55.7266C54.9095 55.5515 55 55.3141 55 55.0665V51.3326C54.9991 49.8906 54.7176 48.465 54.1741 47.1494C53.6306 45.8338 52.8372 44.6578 51.8461 43.6985ZM50.4264 42.5541C49.2053 41.7461 47.8301 41.2525 46.4062 41.1109C46.4062 41.0941 46.4062 41.0792 46.4062 41.0642V38.2638C46.4021 38.2317 46.3964 38.1999 46.3891 38.1685C47.5861 37.4715 48.5541 36.3875 49.1591 35.0667C49.7642 33.7459 49.9764 32.2534 49.7664 30.7959H53.2537C53.1218 34.8951 52.1563 38.9118 50.4264 42.5578V42.5541ZM42.9688 37.3303C41.6012 37.3303 40.2897 36.7402 39.3227 35.6898C38.3557 34.6394 37.8125 33.2148 37.8125 31.7294C37.9226 31.7295 38.0317 31.7067 38.1339 31.6621L41.3033 30.2731C41.833 30.0398 42.4194 30.0063 42.9688 30.1779L47.8861 31.6958C47.9628 31.7138 48.0415 31.7201 48.1198 31.7144V31.7294C48.1198 33.2138 47.5773 34.6376 46.6114 35.6878C45.6456 36.738 44.3354 37.3288 42.9688 37.3303ZM44.6875 38.9321V41.0642C44.6875 41.5594 44.5064 42.0342 44.1841 42.3844C43.8618 42.7345 43.4246 42.9312 42.9688 42.9312C42.5129 42.9312 42.0757 42.7345 41.7534 42.3844C41.4311 42.0342 41.25 41.5594 41.25 41.0642V38.9321C42.3727 39.2857 43.5648 39.2857 44.6875 38.9321ZM39.5312 41.1501C38.9049 41.2116 38.2859 41.3417 37.6836 41.5384C36.8946 40.3654 35.8851 39.3878 34.7222 38.6704C33.5592 37.953 32.2691 37.5121 30.9375 37.3769C30.9375 37.3601 30.9375 37.3452 30.9375 37.3303V34.5298C30.9334 34.4978 30.9276 34.466 30.9203 34.4346C32.2448 33.6098 33.2788 32.3296 33.8594 30.7959H36.1763C36.1304 31.1048 36.1029 31.4166 36.0938 31.7294C36.0976 33.0378 36.419 34.3221 37.0255 35.4526C37.6321 36.5831 38.5023 37.5199 39.5484 38.1685C39.5411 38.1999 39.5354 38.2317 39.5312 38.2638V41.0642C39.5312 41.0941 39.5312 41.1202 39.5312 41.1482V41.1501ZM27.5 33.5963C26.1325 33.5963 24.821 33.0062 23.854 31.9559C22.887 30.9055 22.3438 29.4809 22.3438 27.9954C22.4539 27.9956 22.563 27.9728 22.6652 27.9282L25.8345 26.5392C26.3643 26.306 26.9507 26.2725 27.5 26.444L32.4173 27.9618C32.4941 27.9798 32.5728 27.986 32.6511 27.9805V27.9954C32.6511 29.4799 32.1086 30.9037 31.1427 31.9539C30.1768 33.0041 28.8666 33.5948 27.5 33.5963ZM29.2188 35.1982V37.3303C29.2188 37.8254 29.0377 38.3003 28.7153 38.6504C28.393 39.0005 27.9558 39.1972 27.5 39.1972C27.0442 39.1972 26.607 39.0005 26.2847 38.6504C25.9623 38.3003 25.7812 37.8254 25.7812 37.3303V35.1982C26.904 35.5518 28.096 35.5518 29.2188 35.1982ZM24.0625 37.3769C22.7288 37.5103 21.4364 37.9503 20.2712 38.6678C19.106 39.3853 18.0947 40.3638 17.3044 41.5384C16.7061 41.342 16.0911 41.2112 15.4688 41.1482C15.4688 41.1184 15.4688 41.0922 15.4688 41.0642V38.2638C15.4646 38.2317 15.4589 38.1999 15.4516 38.1685C16.4977 37.5199 17.3679 36.5831 17.9745 35.4526C18.581 34.3221 18.9024 33.0378 18.9062 31.7294C18.8954 31.4165 18.8661 31.1047 18.8186 30.7959H21.1406C21.7225 32.3305 22.7585 33.6108 24.0848 34.4346C24.0758 34.4659 24.0683 34.4977 24.0625 34.5298V37.3303C24.0625 37.3471 24.0625 37.362 24.0625 37.3769ZM12.0312 37.3303C10.7814 37.3261 9.57567 36.828 8.63916 35.9289C7.70266 35.0298 7.09941 33.7912 6.94203 32.4444C8.98342 32.3896 10.9986 31.9316 12.8889 31.0927C14.2385 31.7298 15.6715 32.1336 17.1359 32.2894C17.0108 33.6671 16.4194 34.9454 15.4764 35.8766C14.5334 36.8079 13.3057 37.3259 12.0312 37.3303ZM13.75 38.9321V41.0642C13.75 41.5594 13.5689 42.0342 13.2466 42.3844C12.9243 42.7345 12.4871 42.9312 12.0312 42.9312C11.5754 42.9312 11.1382 42.7345 10.8159 42.3844C10.4936 42.0342 10.3125 41.5594 10.3125 41.0642V38.9321C10.8726 39.1 11.4503 39.1891 12.0312 39.1972C12.6122 39.1891 13.1899 39.1 13.75 38.9321ZM20.7127 28.9289H18.3906C17.7197 27.1426 16.4404 25.7062 14.8191 24.9186C15.051 21.9232 15.5483 18.9591 16.3041 16.0673C19.7246 16.6364 23.1758 16.962 26.6355 17.0419V20.6209C24.9793 20.8457 23.4553 21.7185 22.349 23.076C21.2426 24.4334 20.6297 26.1824 20.625 27.9954C20.6358 28.3083 20.6651 28.6201 20.7127 28.9289ZM17.0156 30.3814C15.7353 30.2471 14.4886 29.8586 13.3375 29.2351C13.2023 29.1449 13.0467 29.0972 12.888 29.0972C12.7294 29.0972 12.5738 29.1449 12.4386 29.2351C10.727 30.0963 8.8677 30.5568 6.98156 30.5868C7.21867 29.3461 7.83683 28.2297 8.73468 27.4207C9.63253 26.6117 10.7568 26.1581 11.9231 26.1342C13.0895 26.1103 14.2287 26.5176 15.154 27.2893C16.0792 28.061 16.7357 29.1513 17.0156 30.3814ZM6.70312 27.0619C6.36533 26.664 6.14176 26.1676 6.05983 25.6336C5.97789 25.0997 6.04115 24.5514 6.24185 24.0559C6.44254 23.5605 6.77196 23.1394 7.18972 22.8443C7.60747 22.5491 8.09542 22.3928 8.59375 22.3945C9.14116 22.397 9.67334 22.5905 10.1118 22.9465C10.5503 23.3025 10.8719 23.8021 11.0292 24.3716C9.32672 24.6445 7.78176 25.6053 6.70312 27.0619ZM38.1992 29.6197C38.5861 28.5802 39.2521 27.6912 40.1106 27.0686C40.969 26.446 41.9802 26.1185 43.0123 26.1288C44.0445 26.139 45.05 26.4866 45.8978 27.1262C46.7456 27.7658 47.3965 28.6679 47.7658 29.7149L43.4431 28.3837C42.525 28.1007 41.5463 28.1565 40.6605 28.5424L38.1992 29.6197ZM53.2486 28.9289H49.3281C48.8963 27.7762 48.2067 26.7588 47.3217 25.9686C46.4367 25.1784 45.3842 24.6404 44.2595 24.4034C44.1304 24.314 43.9812 24.2649 43.8281 24.2615H43.3812C43.3347 24.2671 43.2887 24.2771 43.2438 24.2913C43.1509 24.2913 43.0633 24.2615 42.9688 24.2615C42.5944 24.2692 42.2214 24.3104 41.8533 24.3847C41.6152 21.626 41.1598 18.8946 40.492 16.2204C41.2809 16.0972 42.0716 15.974 42.8192 15.8246C44.865 15.4432 46.8816 14.8959 48.852 14.1873C51.5751 18.5487 53.0999 23.6615 53.2486 28.9289ZM45.7291 10.0613C46.4614 10.8634 47.1468 11.7145 47.7812 12.6097C46.0574 13.1942 44.2999 13.6545 42.5202 13.9875C41.7158 14.1481 40.8667 14.2825 40.0125 14.4132C38.8837 9.92382 36.6446 5.85603 33.538 2.65126C38.1557 3.84538 42.3766 6.41098 45.7291 10.0613ZM28.3594 1.925C32.3486 2.5243 36.0456 7.26268 38.2731 14.6466C35.1621 15.0297 32.0335 15.221 28.9025 15.2197C28.7203 15.2197 28.5416 15.2104 28.3594 15.2085V1.925ZM28.3594 17.0774C28.5416 17.0774 28.7203 17.0886 28.9025 17.0886C32.2023 17.0912 35.4993 16.8836 38.7767 16.4669C39.4819 19.2313 39.9503 22.0606 40.1758 24.9186C38.5564 25.7074 37.2791 27.1436 36.6094 28.9289H34.2873C34.3349 28.6201 34.3642 28.3083 34.375 27.9954C34.3729 26.2591 33.8139 24.5779 32.7941 23.2408C31.7743 21.9038 30.3575 20.9945 28.7873 20.6694C28.6592 20.5807 28.5113 20.5317 28.3594 20.5275V17.0774ZM32.297 25.9791L27.9744 24.6479C27.0561 24.3657 26.0777 24.4215 25.1917 24.8066L22.7305 25.8857C23.1174 24.8462 23.7834 23.9573 24.6418 23.3347C25.5003 22.712 26.5114 22.3846 27.5436 22.3948C28.5758 22.4051 29.5812 22.7527 30.429 23.3923C31.2768 24.0319 31.9277 24.9339 32.297 25.9809V25.9791ZM26.6406 1.92687V15.1824C23.3548 15.1032 20.0769 14.7983 16.8266 14.2694C19.0592 7.10772 22.7184 2.51683 26.6406 1.92687ZM9.27094 10.0613C12.623 6.41529 16.842 3.85304 21.4569 2.66059C18.4476 5.73587 16.2567 9.63511 15.1147 13.9483C14.1797 13.7616 13.2705 13.5562 12.418 13.3285C10.8635 12.9377 9.34343 12.3999 7.87531 11.721C8.30156 11.1703 8.75359 10.6214 9.27094 10.0613ZM6.79422 13.2351C8.4706 14.0585 10.2179 14.6995 12.0106 15.1488C12.8339 15.3691 13.7122 15.567 14.6128 15.7518C13.8848 18.5773 13.3935 21.4686 13.145 24.3903C13.0178 24.3679 12.8872 24.3623 12.7583 24.3473C12.7696 24.2432 12.7643 24.1378 12.7428 24.0356C12.4732 22.9469 11.8499 22.001 10.9882 21.3727C10.1264 20.7444 9.08443 20.4762 8.05474 20.6175C7.02506 20.7589 6.07728 21.3003 5.38651 22.1417C4.69575 22.9831 4.3087 24.0676 4.29688 25.195C4.30506 25.8549 4.44071 26.5057 4.69503 27.1052C4.94935 27.7047 5.31669 28.2395 5.77328 28.675C5.73719 28.7609 5.70109 28.843 5.66844 28.9289H1.75484C1.93317 23.2627 3.68973 17.7885 6.7925 13.2295L6.79422 13.2351ZM1.74625 30.7959H5.24391C5.19637 31.1047 5.16709 31.4165 5.15625 31.7294C5.1601 33.0378 5.4815 34.3221 6.08803 35.4526C6.69455 36.5831 7.56477 37.5199 8.61094 38.1685C8.60361 38.1999 8.59787 38.2317 8.59375 38.2638V41.0642C8.59375 41.081 8.59375 41.096 8.59375 41.1109C7.16811 41.2517 5.79111 41.7453 4.56844 42.5541C2.84082 38.9088 1.87706 34.8934 1.74625 30.7959ZM15.4688 47.5986V54.133H1.71875V51.3326C1.72585 49.1775 2.49511 47.1077 3.86747 45.5513C5.23983 43.995 7.11033 43.071 9.09219 42.9704C9.39287 43.5273 9.82237 43.989 10.3381 44.3099C10.8538 44.6308 11.4378 44.7996 12.0321 44.7996C12.6264 44.7996 13.2104 44.6308 13.7261 44.3099C14.2418 43.989 14.6714 43.5273 14.972 42.9704C15.4524 42.9955 15.9294 43.0699 16.3969 43.1926C15.7876 44.5672 15.4705 46.073 15.4688 47.5986ZM37.8125 54.133H17.1875V47.5986C17.1946 45.4435 17.9639 43.3738 19.3362 41.8174C20.7086 40.261 22.5791 39.337 24.5609 39.2365C24.8621 39.7924 25.2916 40.2533 25.8071 40.5736C26.3226 40.8938 26.9062 41.0622 27.5 41.0622C28.0938 41.0622 28.6774 40.8938 29.1929 40.5736C29.7084 40.2533 30.1379 39.7924 30.4391 39.2365C32.4209 39.337 34.2914 40.261 35.6638 41.8174C37.0361 43.3738 37.8054 45.4435 37.8125 47.5986V54.133ZM53.2812 54.133H39.5312V47.5986C39.5298 46.0723 39.2126 44.5659 38.6031 43.1907C39.0706 43.068 39.5476 42.9936 40.028 42.9685C40.3286 43.5254 40.7581 43.9872 41.2739 44.308C41.7896 44.6289 42.3736 44.7977 42.9679 44.7977C43.5622 44.7977 44.1462 44.6289 44.6619 44.308C45.1776 43.9872 45.6071 43.5254 45.9078 42.9685C47.89 43.0691 49.7607 43.9934 51.1331 45.5502C52.5055 47.1069 53.2746 49.1771 53.2812 51.3326V54.133Z" fill="black"/>
</svg>
