<svg width="62" height="56" viewBox="0 0 62 56" fill="none" xmlns="http://www.w3.org/2000/svg">
<path d="M62 19.768C62 8.85325 52.3634 0 40.4829 0C28.6024 0 18.9658 8.85325 18.9658 19.768C18.9658 29.5532 26.7119 37.6581 36.8865 39.2395V50.352H12.2955V41.88H15.3694V30.584C15.3694 29.0308 13.9861 27.76 12.2955 27.76H3.07387C1.38324 27.76 0 29.0308 0 30.584V41.88H3.07387V56H52.2558V50.352H43.0342V39.3949C53.7159 38.237 62 29.8921 62 19.768ZM7.68468 24.936C10.236 24.936 12.2955 23.0439 12.2955 20.6999C12.2955 18.356 10.236 16.4639 7.68468 16.4639C5.13337 16.4639 3.07387 18.356 3.07387 20.6999C3.07387 23.0439 5.13337 24.936 7.68468 24.936Z" fill="black"/>
</svg>
