<svg width="20" height="21" viewBox="0 0 20 21" fill="none" xmlns="http://www.w3.org/2000/svg">
<path d="M9.97794 1.29407C5.15661 1.29407 1.24731 5.35032 1.24731 10.3529C1.24731 15.3555 5.15661 19.4117 9.97794 19.4117C14.7993 19.4117 18.7086 15.3555 18.7086 10.3529C18.7086 5.35032 14.7993 1.29407 9.97794 1.29407ZM9.97794 17.875C5.9751 17.875 2.7284 14.5062 2.7284 10.3529C2.7284 6.19958 5.9751 2.83083 9.97794 2.83083C13.9808 2.83083 17.2275 6.19958 17.2275 10.3529C17.2275 14.5062 13.9808 17.875 9.97794 17.875Z" fill="#9FD86B"/>
<path d="M9.97781 2.83093C5.97497 2.83093 2.72827 6.19968 2.72827 10.353C2.72827 14.5063 5.97497 17.8751 9.97781 17.8751C13.9806 17.8751 17.2273 14.5063 17.2273 10.353C17.2273 6.19968 13.9806 2.83093 9.97781 2.83093ZM13.1758 10.4784L8.91961 13.6914C8.89628 13.7088 8.86877 13.7192 8.84012 13.7214C8.81147 13.7237 8.78278 13.7177 8.7572 13.7041C8.73162 13.6905 8.71015 13.6699 8.69514 13.6444C8.68013 13.619 8.67216 13.5898 8.67211 13.56V7.13792C8.67202 7.10805 8.6799 7.07873 8.69488 7.05322C8.70986 7.02771 8.73136 7.007 8.75699 6.99339C8.78262 6.97978 8.81138 6.9738 8.84008 6.97611C8.86879 6.97842 8.89631 6.98893 8.91961 7.00648L13.1758 10.2175C13.1959 10.2323 13.2123 10.2518 13.2236 10.2745C13.2349 10.2972 13.2409 10.3224 13.2409 10.3479C13.2409 10.3735 13.2349 10.3987 13.2236 10.4214C13.2123 10.4441 13.1959 10.4636 13.1758 10.4784Z" fill="black" fill-opacity="0.1"/>
<path d="M13.1758 10.2174L8.91962 7.00633C8.89632 6.98877 8.86879 6.97826 8.84009 6.97595C8.81138 6.97364 8.78262 6.97962 8.75699 6.99323C8.73136 7.00684 8.70987 7.02755 8.69489 7.05306C8.67991 7.07857 8.67203 7.10789 8.67212 7.13776V13.5598C8.67217 13.5896 8.68013 13.6189 8.69514 13.6443C8.71015 13.6697 8.73163 13.6903 8.75721 13.7039C8.78278 13.7175 8.81147 13.7235 8.84013 13.7213C8.86878 13.719 8.89628 13.7086 8.91962 13.6912L13.1758 10.4782C13.1959 10.4634 13.2123 10.4439 13.2236 10.4212C13.2349 10.3985 13.2409 10.3733 13.2409 10.3478C13.2409 10.3222 13.2349 10.297 13.2236 10.2743C13.2123 10.2517 13.1959 10.2321 13.1758 10.2174Z" fill="#9FD86B"/>
</svg>
