<svg width="16" height="13" viewBox="0 0 16 13" fill="none" xmlns="http://www.w3.org/2000/svg">
<path d="M7.01901 0.590571C7.35155 -0.196857 8.64845 -0.196857 8.98099 0.590571L10.2779 3.59967C10.4109 3.93714 10.81 4.16212 11.209 4.19024L15 4.30273C15.9643 4.33085 16.3634 5.37138 15.5985 5.87758L12.6057 7.84615C12.2731 8.07113 12.1401 8.43672 12.2399 8.77419L13.304 11.8677C13.5701 12.6551 12.5392 13.3019 11.7078 12.8519L8.58195 11.024C8.21615 10.8271 7.75059 10.8271 7.41805 11.024L4.29218 12.8238C3.49408 13.2738 2.42995 12.6551 2.69598 11.8395L3.76011 8.74607C3.89313 8.4086 3.72686 8.01489 3.39432 7.81803L0.401452 5.84946C-0.363391 5.34326 0.0356572 4.30273 1.00002 4.27461L4.79099 4.16212C5.22329 4.16212 5.58908 3.90901 5.7221 3.57155L7.01901 0.590571Z" fill="url(#paint0_linear_247_902)"/>
<defs>
<linearGradient id="paint0_linear_247_902" x1="9.23077" y1="3.25" x2="8.27458" y2="13.0269" gradientUnits="userSpaceOnUse">
<stop stop-color="#F8CD5E"/>
<stop offset="1" stop-color="#D39D0C"/>
</linearGradient>
</defs>
</svg>
