<svg width="67" height="65" viewBox="0 0 67 65" fill="none" xmlns="http://www.w3.org/2000/svg">
<path d="M49.3684 9.51007C46.2637 9.50779 43.2166 10.2863 40.5526 11.7623C38.6211 7.65862 35.2293 4.29121 30.9418 2.22083C26.6543 0.150447 21.7301 -0.497966 16.9889 0.383567C12.2478 1.2651 7.97603 3.62338 4.88485 7.0657C1.79368 10.508 0.0697046 14.8266 0 19.3024V32.3589C0.00506323 36.9837 1.77813 41.4577 5.0052 44.9885C8.23227 48.5192 12.7051 50.879 17.6316 51.6498V61.7359C17.6316 62.6016 18.0031 63.4318 18.6644 64.044C19.3257 64.6561 20.2227 65 21.1579 65C22.0931 65 22.9901 64.6561 23.6514 64.044C24.3127 63.4318 24.6842 62.6016 24.6842 61.7359V51.6498C28.2766 51.0727 31.6506 49.6572 34.4874 47.537C35.7463 49.4073 37.4014 51.0223 39.3529 52.2845C41.3044 53.5467 43.5118 54.4301 45.8421 54.8812V61.7359C45.8421 62.6016 46.2136 63.4318 46.8749 64.044C47.5363 64.6561 48.4332 65 49.3684 65C50.3037 65 51.2006 64.6561 51.8619 64.044C52.5232 63.4318 52.8947 62.6016 52.8947 61.7359V54.8812C56.8772 54.1288 60.4566 52.1257 63.0269 49.2112C65.5973 46.2966 67.0008 42.6495 67 38.8871V25.8306C67 21.5022 65.1424 17.351 61.8358 14.2903C58.5293 11.2296 54.0446 9.51007 49.3684 9.51007ZM31.7368 25.8306V38.8871C31.7706 39.5104 31.8412 40.1315 31.9484 40.7476C30.0625 42.8267 27.5233 44.31 24.6842 44.991V35.623C24.6842 34.7573 24.3127 33.927 23.6514 33.3149C22.9901 32.7028 22.0931 32.3589 21.1579 32.3589C20.2227 32.3589 19.3257 32.7028 18.6644 33.3149C18.0031 33.927 17.6316 34.7573 17.6316 35.623V44.9583C14.6114 44.2365 11.9348 42.6084 10.0207 40.3287C8.10654 38.0489 7.06276 35.2462 7.05263 32.3589V19.3024C7.04343 16.7158 7.86444 14.185 9.41151 12.0309C10.9586 9.87692 13.162 8.19678 15.7422 7.20366C18.3224 6.21055 21.1632 5.94922 23.9041 6.45283C26.645 6.95644 29.1625 8.20229 31.1374 10.0323C33.0463 11.8231 34.3459 14.0929 34.8753 16.5606C32.8368 19.2841 31.7422 22.5174 31.7368 25.8306ZM59.9474 38.8871C59.9412 40.9074 59.2602 42.8765 57.9975 44.5244C56.7349 46.1724 54.9525 47.4185 52.8947 48.0919V35.623C52.8947 34.7573 52.5232 33.927 51.8619 33.3149C51.2006 32.7028 50.3037 32.3589 49.3684 32.3589C48.4332 32.3589 47.5363 32.7028 46.8749 33.3149C46.2136 33.927 45.8421 34.7573 45.8421 35.623V48.0919C43.7843 47.4185 42.0019 46.1724 40.7393 44.5244C39.4767 42.8765 38.7956 40.9074 38.7895 38.8871V25.8306C38.7895 23.2335 39.904 20.7428 41.888 18.9064C43.8719 17.07 46.5627 16.0383 49.3684 16.0383C52.1741 16.0383 54.8649 17.07 56.8489 18.9064C58.8328 20.7428 59.9474 23.2335 59.9474 25.8306V38.8871Z" fill="black"/>
</svg>
